<?xml version="1.0" encoding="utf-8"?>
<!-- Generator: Adobe Illustrator 14.0.0, SVG Export Plug-In . SVG Version: 6.00 Build 43363)  -->
<!DOCTYPE svg PUBLIC "-//W3C//DTD SVG 1.1//EN" "http://www.w3.org/Graphics/SVG/1.1/DTD/svg11.dtd">
<svg version="1.1" id="Layer_1" xmlns="http://www.w3.org/2000/svg" xmlns:xlink="http://www.w3.org/1999/xlink" x="0px" y="0px"
	 width="40px" height="40px" viewBox="0 0 40 40" enable-background="new 0 0 40 40" xml:space="preserve">
<rect fill="#FF0000" width="40" height="40"/>
<path fill="#FFFFFF" d="M37.817,16.603v-1.942h-8.071v1.942h2.821v7.519h2.4v-7.519H37.817z M26.788,20.56h-2.727l1.377-3.496
	L26.788,20.56z M27.49,22.381l0.675,1.741h2.565l-3.982-9.448h-2.47l-4.077,9.448h2.47l0.689-1.741H27.49z M16.393,14.593
	c-2.876,0-5.048,2.05-5.048,4.778c0,2.769,2.118,4.859,4.967,4.859c1.39,0,2.889-0.688,3.901-1.726l-1.404-1.485
	c-0.661,0.675-1.579,1.107-2.376,1.107c-1.498,0-2.632-1.202-2.632-2.782c0-1.553,1.134-2.741,2.632-2.741
	c0.837,0,1.755,0.472,2.376,1.229l1.391-1.647C19.255,15.213,17.797,14.593,16.393,14.593 M6.903,14.566
	c-2.268,0-3.766,1.106-3.766,2.847c0,3.349,4.995,2.35,4.995,4.024c0,0.54-0.472,0.824-1.229,0.824
	c-0.986,0-2.444-0.567-3.415-1.418l-0.931,1.85c1.12,0.917,2.739,1.511,4.319,1.511c2.106,0,3.779-0.998,3.779-2.888
	c0-3.417-4.995-2.485-4.995-4.119c0-0.459,0.419-0.689,1.04-0.689c0.77,0,2.026,0.405,3.024,0.986l0.904-1.876
	C9.657,14.984,8.267,14.566,6.903,14.566"/>
</svg>
